<?xml version="1.0" standalone="no"?>
<!DOCTYPE svg PUBLIC "-//W3C//DTD SVG 20010904//EN"
 "http://www.w3.org/TR/2001/REC-SVG-20010904/DTD/svg10.dtd">
<svg version="1.0" xmlns="http://www.w3.org/2000/svg"
 width="118.000000pt" height="118.000000pt" viewBox="0 0 118.000000 118.000000"
 preserveAspectRatio="xMidYMid meet">
<metadata>
Created by potrace 1.11, written by Peter Selinger 2001-2013
</metadata>
<g transform="translate(0.000000,118.000000) scale(0.100000,-0.100000)"
fill="#000000" stroke="none">
<path d="M715 903 c-16 -8 -46 -31 -67 -50 -29 -29 -39 -33 -55 -25 -17 10
-17 11 0 17 24 10 21 20 -8 33 -38 18 -96 14 -139 -7 -21 -11 -78 -25 -128
-31 -79 -9 -94 -9 -115 6 -40 25 -58 0 -58 -80 0 -57 3 -68 28 -93 15 -16 27
-36 27 -45 0 -8 11 -27 24 -41 l24 -26 -69 -32 c-38 -18 -69 -36 -69 -40 0 -5
12 -11 27 -14 16 -3 45 -10 66 -16 31 -8 48 -6 90 9 l52 20 27 -27 c66 -66
204 -128 308 -139 40 -4 64 -13 90 -34 19 -15 38 -28 41 -28 4 0 25 -18 47
-40 22 -22 45 -40 51 -40 18 0 24 49 12 92 -12 39 -12 39 31 78 43 39 61 45
131 41 37 -3 51 12 21 23 -8 3 -12 11 -9 16 11 17 -16 42 -39 36 -19 -5 -21
-1 -18 40 7 84 -45 160 -164 242 -11 7 -13 10 -7 7 14 -7 113 35 113 48 0 18
-55 57 -89 63 -20 4 -46 18 -58 30 -26 28 -73 31 -118 7z m89 -3 c14 -5 26
-15 26 -21 0 -8 -5 -7 -16 2 -9 7 -18 9 -22 3 -4 -5 -16 -10 -27 -12 -11 -2
-42 -17 -69 -33 -27 -16 -51 -27 -54 -24 -9 9 39 53 82 75 47 23 47 23 80 10z
m-312 -39 c-57 -20 -92 -46 -92 -70 0 -12 3 -12 12 -3 7 7 21 12 33 13 20 0
20 1 0 8 -18 7 -17 9 12 24 17 9 49 19 72 23 33 5 41 4 41 -8 0 -26 -50 -67
-89 -74 -20 -3 -40 -7 -44 -8 -5 -1 1 -14 13 -29 34 -42 70 -32 70 20 0 39 82
70 116 42 7 -5 27 3 55 24 41 30 49 32 124 32 44 0 89 -5 100 -12 16 -10 5
-11 -60 -8 -44 2 -66 2 -50 -1 17 -3 44 -11 60 -19 17 -7 39 -17 50 -21 17 -6
18 -8 3 -11 -9 -2 -38 5 -63 16 -54 24 -60 19 -8 -7 l36 -19 -36 -7 c-21 -4
-45 -2 -56 4 -32 17 -38 11 -11 -11 14 -12 18 -19 10 -16 -8 2 -26 7 -40 11
l-25 7 25 -16 c24 -14 24 -15 -17 -9 -48 7 -49 5 -28 -37 13 -24 21 -29 43
-25 15 2 31 5 35 5 5 1 6 11 2 24 -5 19 -5 20 5 4 9 -14 15 -15 25 -7 8 6 11
18 8 26 -9 24 31 16 73 -15 108 -77 152 -187 110 -269 -31 -61 -111 -136 -92
-87 3 8 1 15 -4 15 -16 0 -24 -52 -11 -71 16 -27 14 -43 -8 -63 -19 -17 -20
-17 -36 8 -10 14 -23 26 -30 26 -24 0 -104 90 -116 130 -12 40 -21 43 -39 11
-7 -14 -4 -25 11 -45 12 -15 19 -29 17 -32 -9 -9 -161 36 -206 61 -75 42 -97
62 -82 80 10 12 10 15 0 15 -7 0 -10 8 -7 20 6 24 9 24 -44 1 -47 -20 -149
-34 -149 -20 0 5 -7 6 -15 3 -9 -4 -15 -1 -15 7 1 8 31 28 68 46 37 18 55 30
40 27 -21 -5 -33 0 -53 21 -14 16 -25 35 -25 43 0 9 -10 26 -22 39 l-21 23 41
0 c22 0 44 5 48 11 4 8 -3 9 -23 5 -16 -4 -42 -2 -56 3 -25 10 -27 14 -21 53
9 56 20 71 45 57 31 -16 195 -4 226 17 30 19 68 32 98 33 11 0 -4 -8 -33 -18z
m448 -52 c27 -15 -11 -10 -45 6 l-30 14 30 -6 c17 -3 37 -9 45 -14z m-455 -69
c3 -5 1 -10 -4 -10 -6 0 -11 5 -11 10 0 6 2 10 4 10 3 0 8 -4 11 -10z m255
-30 c6 -11 8 -20 6 -20 -3 0 -10 9 -16 20 -6 11 -8 20 -6 20 3 0 10 -9 16 -20z
m330 -285 c-15 -18 -64 -21 -57 -2 2 6 14 11 25 9 16 -2 22 2 22 14 0 14 3 15
12 6 8 -8 8 -15 -2 -27z m-156 -210 c-6 -16 -24 -21 -24 -7 0 11 11 22 21 22
5 0 6 -7 3 -15z"/>
<path d="M703 800 c-34 -20 -47 -38 -15 -21 23 13 58 40 52 41 -3 0 -20 -9
-37 -20z"/>
<path d="M800 791 c0 -9 30 -24 36 -18 2 1 -6 8 -16 15 -11 7 -20 8 -20 3z"/>
</g>
</svg>
